<?xml version="1.0" standalone="no"?><!DOCTYPE svg PUBLIC "-//W3C//DTD SVG 1.1//EN" "http://www.w3.org/Graphics/SVG/1.1/DTD/svg11.dtd"><svg t="1602812557866" class="icon" viewBox="0 0 1024 1024" version="1.1" xmlns="http://www.w3.org/2000/svg" p-id="2805" data-darkreader-inline-fill="" xmlns:xlink="http://www.w3.org/1999/xlink" width="200" height="200"><defs><style type="text/css">[data-darkreader-inline-fill] { fill: var(--darkreader-inline-fill)  !important; }
* {  }
@font-face { font-weight: 400; font-style: normal; font-family: Inter-Loom; src: url("https://cdn.loom.com/assets/fonts/inter/Inter-UI-Regular.woff2") format("woff2"); }
@font-face { font-weight: 400; font-style: italic; font-family: Inter-Loom; src: url("https://cdn.loom.com/assets/fonts/inter/Inter-UI-Italic.woff2") format("woff2"); }
@font-face { font-weight: 500; font-style: normal; font-family: Inter-Loom; src: url("https://cdn.loom.com/assets/fonts/inter/Inter-UI-Medium.woff2") format("woff2"); }
@font-face { font-weight: 500; font-style: italic; font-family: Inter-Loom; src: url("https://cdn.loom.com/assets/fonts/inter/Inter-UI-MediumItalic.woff2") format("woff2"); }
@font-face { font-weight: 700; font-style: normal; font-family: Inter-Loom; src: url("https://cdn.loom.com/assets/fonts/inter/Inter-UI-Bold.woff2") format("woff2"); }
@font-face { font-weight: 700; font-style: italic; font-family: Inter-Loom; src: url("https://cdn.loom.com/assets/fonts/inter/Inter-UI-BoldItalic.woff2") format("woff2"); }
@font-face { font-weight: 900; font-style: normal; font-family: Inter-Loom; src: url("https://cdn.loom.com/assets/fonts/inter/Inter-UI-Black.woff2") format("woff2"); }
@font-face { font-weight: 900; font-style: italic; font-family: Inter-Loom; src: url("https://cdn.loom.com/assets/fonts/inter/Inter-UI-BlackItalic.woff2") format("woff2"); }
</style></defs><path d="M844.4 951.7L313.7 862l98.8-583.8 50 8.4-90.3 533.8 430.7 72.9 90.2-533.8 50 8.4z" fill="#FFAB00" p-id="2806" data-darkreader-inline-fill="" style="--darkreader-inline-fill:#b68e3d;"></path><path d="M902.6 394.3L719.7 134.2 441.5 320.9l-28.2-42.1L732.7 64.5l211.4 300.7z" fill="#FFAB00" p-id="2807" data-darkreader-inline-fill="" style="--darkreader-inline-fill:#b68e3d;"></path><path d="M764.3 405.5L560 934.2 105.3 758.4l204.3-528.6" fill="#FFFFFF" p-id="2808" data-darkreader-inline-fill="" style="--darkreader-inline-fill:#dcdad7;"></path><path d="M560 959.5c-3.1 0-6.2-0.6-9.1-1.7L96.1 782c-13.1-5-19.6-19.7-14.5-32.8L286 220.6l47.3 18.3-195.2 505 407.4 157.5 195.2-505 47.3 18.3-204.3 528.6c-2.4 6.3-7.2 11.3-13.4 14-3.3 1.5-6.8 2.2-10.3 2.2z" fill="#6C8CD5" p-id="2809" data-darkreader-inline-fill="" style="--darkreader-inline-fill:#4e78d7;"></path><path d="M296.3 244.8l332.8-136.6 137.1 314.1" fill="#FFFFFF" p-id="2810" data-darkreader-inline-fill="" style="--darkreader-inline-fill:#dcdad7;"></path><path d="M743 432.4L615.8 141 305.9 268.3l-19.3-46.9L619.5 84.7c12.8-5.2 27.4 0.7 32.9 13.3l137.1 314.1-46.5 20.3z" fill="#6C8CD5" p-id="2811" data-darkreader-inline-fill="" style="--darkreader-inline-fill:#4e78d7;"></path><path d="M385.4 490.8m-30.1 0a30.1 30.1 0 1 0 60.2 0 30.1 30.1 0 1 0-60.2 0Z" fill="#FF9900" p-id="2812" data-darkreader-inline-fill="" style="--darkreader-inline-fill:#b6863d;"></path><path d="M385.4 546.3c-3.8 0-7.6-0.4-11.5-1.2-29.9-6.3-49.1-35.8-42.8-65.8 3.1-14.5 11.6-26.9 24-35 12.4-8.1 27.2-10.8 41.7-7.8 29.9 6.3 49.1 35.8 42.8 65.8-5.5 26-28.6 44-54.2 44z m0-60.3c-2.2 0-4.2 1.5-4.6 3.8-0.3 1.6 0.2 2.8 0.7 3.6 0.5 0.8 1.4 1.7 3 2.1 2.5 0.5 5.1-1.1 5.6-3.7s-1.1-5.1-3.7-5.6c-0.4-0.1-0.7-0.2-1-0.2z" fill="#FFAB00" p-id="2813" data-darkreader-inline-fill="" style="--darkreader-inline-fill:#b68e3d;"></path><path d="M465.6 669.3m-30.1 0a30.1 30.1 0 1 0 60.2 0 30.1 30.1 0 1 0-60.2 0Z" fill="#FFAB00" p-id="2814" data-darkreader-inline-fill="" style="--darkreader-inline-fill:#b68e3d;"></path><path d="M465.6 724.8c-3.8 0-7.6-0.4-11.5-1.2-14.5-3.1-26.9-11.6-35-24-8.1-12.4-10.8-27.3-7.8-41.7 6.3-29.9 35.9-49.1 65.8-42.8 29.9 6.3 49.1 35.8 42.8 65.8-5.5 26-28.6 43.9-54.3 43.9z m29.5-49.3h0.2-0.2z m-29.5-11c-2.2 0-4.2 1.5-4.7 3.8-0.3 1.6 0.2 2.8 0.7 3.6 0.5 0.8 1.4 1.7 3 2.1 2.5 0.5 5.1-1.1 5.6-3.7 0.3-1.6-0.2-2.8-0.7-3.6-0.5-0.8-1.4-1.7-3-2.1-0.2 0-0.5-0.1-0.9-0.1z" fill="#FFAB00" p-id="2815" data-darkreader-inline-fill="" style="--darkreader-inline-fill:#b68e3d;"></path><path d="M263 674.1c-9.9 0-19.3-5.8-23.4-15.5-5.4-12.9 0.6-27.8 13.6-33.2L583 486.8c12.9-5.4 27.8 0.7 33.2 13.6 5.4 12.9-0.6 27.8-13.6 33.2L272.9 672.1c-3.3 1.3-6.6 2-9.9 2z" fill="#FFAB00" p-id="2816" data-darkreader-inline-fill="" style="--darkreader-inline-fill:#b68e3d;"></path></svg>