<?xml version="1.0" standalone="no"?><!DOCTYPE svg PUBLIC "-//W3C//DTD SVG 1.1//EN" "http://www.w3.org/Graphics/SVG/1.1/DTD/svg11.dtd"><svg t="1602812457594" class="icon" viewBox="0 0 1024 1024" version="1.1" xmlns="http://www.w3.org/2000/svg" p-id="1172" data-darkreader-inline-fill="" xmlns:xlink="http://www.w3.org/1999/xlink" width="200" height="200"><defs><style type="text/css">[data-darkreader-inline-fill] { fill: var(--darkreader-inline-fill)  !important; }
* {  }
@font-face { font-weight: 400; font-style: normal; font-family: Inter-Loom; src: url("https://cdn.loom.com/assets/fonts/inter/Inter-UI-Regular.woff2") format("woff2"); }
@font-face { font-weight: 400; font-style: italic; font-family: Inter-Loom; src: url("https://cdn.loom.com/assets/fonts/inter/Inter-UI-Italic.woff2") format("woff2"); }
@font-face { font-weight: 500; font-style: normal; font-family: Inter-Loom; src: url("https://cdn.loom.com/assets/fonts/inter/Inter-UI-Medium.woff2") format("woff2"); }
@font-face { font-weight: 500; font-style: italic; font-family: Inter-Loom; src: url("https://cdn.loom.com/assets/fonts/inter/Inter-UI-MediumItalic.woff2") format("woff2"); }
@font-face { font-weight: 700; font-style: normal; font-family: Inter-Loom; src: url("https://cdn.loom.com/assets/fonts/inter/Inter-UI-Bold.woff2") format("woff2"); }
@font-face { font-weight: 700; font-style: italic; font-family: Inter-Loom; src: url("https://cdn.loom.com/assets/fonts/inter/Inter-UI-BoldItalic.woff2") format("woff2"); }
@font-face { font-weight: 900; font-style: normal; font-family: Inter-Loom; src: url("https://cdn.loom.com/assets/fonts/inter/Inter-UI-Black.woff2") format("woff2"); }
@font-face { font-weight: 900; font-style: italic; font-family: Inter-Loom; src: url("https://cdn.loom.com/assets/fonts/inter/Inter-UI-BlackItalic.woff2") format("woff2"); }
</style></defs><path d="M277.398 874.572c0 11.78-9.53 21.34-21.34 21.34H128.088c-11.746 0-21.306-9.56-21.306-21.34V618.63c0-11.778 9.56-21.308 21.306-21.308h127.97c11.81 0 21.34 9.532 21.34 21.308v255.942z" fill="#A0D468" p-id="1173" data-darkreader-inline-fill="" style="--darkreader-inline-fill:#93d54c;"></path><path d="M490.694 874.572c0 11.78-9.56 21.34-21.34 21.34h-127.97c-11.778 0-21.338-9.56-21.338-21.34V277.396c0-11.78 9.56-21.338 21.338-21.338h127.97c11.78 0 21.34 9.558 21.34 21.338v597.176z" fill="#4FC2E9" p-id="1174" data-darkreader-inline-fill="" style="--darkreader-inline-fill:#4ab1d4;"></path><path d="M703.958 874.572c0 11.78-9.53 21.34-21.308 21.34H554.68c-11.78 0-21.34-9.56-21.34-21.34V490.66c0-11.78 9.56-21.306 21.34-21.306h127.968c11.78 0 21.308 9.528 21.308 21.306v383.912z" fill="#48CFAD" p-id="1175" data-darkreader-inline-fill="" style="--darkreader-inline-fill:#3ec7a4;"></path><path d="M917.252 874.572c0 11.78-9.56 21.34-21.338 21.34h-127.972c-11.778 0-21.306-9.56-21.306-21.34V149.426c0-11.78 9.53-21.338 21.306-21.338h127.972c11.778 0 21.338 9.558 21.338 21.338v725.146z" fill="#5D9CEC" p-id="1176" data-darkreader-inline-fill="" style="--darkreader-inline-fill:#518dda;"></path><path d="M1002.576 853.266H21.458c-11.78 0-21.34 9.528-21.34 21.306s9.56 21.34 21.34 21.34h981.12c11.78 0 21.306-9.56 21.306-21.34s-9.528-21.306-21.308-21.306z" fill="#434A54" p-id="1177" data-darkreader-inline-fill="" style="--darkreader-inline-fill:#4e5457;"></path></svg>